<svg xmlns="http://www.w3.org/2000/svg" width="148" height="25"><g fill="none" fill-rule="evenodd"><path fill="#242A45" fill-rule="nonzero" d="M37 6.299h5.227q1.12 0 2.062.466.943.467 1.484 1.27c.541.803.542 1.12.542 1.754q0 1.008-.495 1.746-.495.737-1.297 1.129v.15q1.045.372 1.661 1.185.615.812.616 1.95 0 1.102-.588 1.951a3.8 3.8 0 0 1-1.587 1.307q-.998.457-2.212.457H37zm5.04 5.45q.822 0 1.316-.457.495-.458.495-1.148 0-.671-.476-1.13-.477-.457-1.26-.457H39.52v3.192zm.28 5.619q.915 0 1.428-.476t.513-1.241-.522-1.251q-.523-.486-1.494-.485H39.52v3.453zm12.927 2.595q-1.96 0-3.556-.924a6.7 6.7 0 0 1-2.511-2.53q-.915-1.605-.915-3.528 0-1.921.915-3.528a6.7 6.7 0 0 1 2.51-2.529Q53.288 6 55.248 6t3.556.924a6.7 6.7 0 0 1 2.51 2.53q.915 1.605.915 3.527t-.915 3.528a6.7 6.7 0 0 1-2.51 2.53q-1.597.924-3.556.924zm0-2.39a4.5 4.5 0 0 0 2.258-.578 4.2 4.2 0 0 0 1.615-1.624q.588-1.046.588-2.39t-.588-2.389a4.2 4.2 0 0 0-1.615-1.624 4.5 4.5 0 0 0-2.258-.579 4.47 4.47 0 0 0-2.25.579 4.2 4.2 0 0 0-1.605 1.624q-.588 1.045-.588 2.39 0 1.343.588 2.389a4.2 4.2 0 0 0 1.605 1.624 4.47 4.47 0 0 0 2.25.578m15.353 2.39q-1.96 0-3.556-.924a6.7 6.7 0 0 1-2.51-2.53q-.915-1.605-.915-3.528 0-1.921.914-3.528a6.7 6.7 0 0 1 2.511-2.529Q68.64 6 70.6 6t3.556.924a6.7 6.7 0 0 1 2.51 2.53q.915 1.605.915 3.527t-.914 3.528a6.7 6.7 0 0 1-2.511 2.53q-1.596.924-3.556.924m0-2.39a4.5 4.5 0 0 0 2.259-.578 4.2 4.2 0 0 0 1.614-1.624q.588-1.046.588-2.39t-.588-2.389a4.2 4.2 0 0 0-1.614-1.624 4.5 4.5 0 0 0-2.259-.579 4.47 4.47 0 0 0-2.25.579 4.2 4.2 0 0 0-1.605 1.624q-.588 1.045-.588 2.39 0 1.343.588 2.389a4.2 4.2 0 0 0 1.606 1.624 4.47 4.47 0 0 0 2.249.578M79.83 6.3h2.52v5.73h.15l4.89-5.73h3.043v.149L85.6 11.973l5.338 7.542v.149h-3.08l-3.994-5.693-1.512 1.773v3.92h-2.52V6.299zM93.779 6h3.248l3.546 9.39h.15L104.268 6h3.267v13.365h-2.501v-6.589l.15-2.221h-.15l-3.398 8.81h-1.96l-3.416-8.81h-.149l.15 2.221v6.59h-2.483zm20.8 0h2.894l5.021 13.365h-2.781l-1.12-3.192h-5.115l-1.12 3.192h-2.781zm3.193 7.859-1.176-3.36-.486-1.606h-.149l-.485 1.606-1.195 3.36h3.49zM124.553 6h4.872q1.307 0 2.324.541a3.9 3.9 0 0 1 1.577 1.503q.56.96.56 2.175 0 1.287-.812 2.286a4.6 4.6 0 0 1-2.044 1.447l-.018.13 3.584 5.134v.15h-2.894l-3.453-5.022h-1.176v5.021h-2.52zm4.853 6.03q.86 0 1.4-.523.542-.523.542-1.326 0-.765-.514-1.306-.514-.542-1.39-.542h-2.371v3.696zm7.23-6.03h2.52v5.73h.15l4.89-5.73h3.043v.15l-4.835 5.525 5.34 7.541v.15h-3.08l-3.996-5.694-1.512 1.773v3.92h-2.52z"/><circle cx="12.5" cy="12.5" r="12.5" fill="#5267DF"/><path fill="#FFF" d="M9 9v10l3.54-3.44L16.078 19V9a2 2 0 0 0-2-2H11a2 2 0 0 0-2 2"/></g></svg>